<?xml version="1.0" standalone="no"?>
<!DOCTYPE svg PUBLIC "-//W3C//DTD SVG 20010904//EN"
 "http://www.w3.org/TR/2001/REC-SVG-20010904/DTD/svg10.dtd">
<svg version="1.0" xmlns="http://www.w3.org/2000/svg"
 width="225.000000pt" height="225.000000pt" viewBox="0 0 225.000000 225.000000"
 preserveAspectRatio="xMidYMid meet">

<g transform="translate(0.000000,225.000000) scale(0.100000,-0.100000)"
fill="#000000" stroke="none">
<path d="M885 2040 c-39 -40 -45 -65 -7 -33 20 18 58 73 50 73 -2 0 -21 -18
-43 -40z"/>
<path d="M1415 2070 c-3 -6 6 -15 22 -21 15 -6 35 -16 43 -23 23 -20 111 -39
123 -27 15 15 2 25 -72 55 -68 27 -106 33 -116 16z"/>
<path d="M940 2060 c-12 -8 -9 -10 12 -10 15 0 30 5 33 10 8 13 -25 13 -45 0z"/>
<path d="M1130 2000 c-8 -5 -12 -12 -8 -15 9 -9 48 4 48 16 0 12 -21 11 -40
-1z"/>
<path d="M1467 1999 c7 -7 15 -10 18 -7 3 3 -2 9 -12 12 -14 6 -15 5 -6 -5z"/>
<path d="M940 1965 c-10 -12 -9 -15 7 -15 10 0 28 7 39 15 18 14 18 14 -7 15
-15 0 -32 -7 -39 -15z"/>
<path d="M1443 1955 c2 -20 37 -35 37 -16 0 6 -6 11 -14 11 -8 0 -17 6 -20 13
-3 6 -5 3 -3 -8z"/>
<path d="M692 1932 c-8 -15 -16 -34 -19 -42 -4 -13 -4 -13 6 0 9 12 11 9 11
-14 0 -25 2 -27 16 -15 8 7 3 -8 -13 -33 -15 -25 -29 -40 -31 -32 -3 12 -8 11
-32 -1 -36 -18 -59 -55 -35 -55 21 0 19 -33 -6 -64 -11 -14 -17 -26 -14 -26 4
0 2 -7 -5 -15 -13 -16 -35 -21 -26 -7 3 5 -1 9 -9 9 -8 0 -12 -4 -9 -8 2 -4 0
-10 -6 -14 -5 -3 -7 -17 -4 -31 4 -17 1 -26 -11 -30 -9 -4 -14 -13 -11 -20 3
-7 -1 -17 -8 -21 -10 -7 -10 -13 1 -33 7 -14 13 -20 13 -13 0 7 7 10 15 7 8
-4 15 -10 15 -14 0 -12 -71 -114 -86 -123 -7 -4 -15 -25 -19 -47 -4 -22 -11
-38 -15 -35 -5 3 -7 11 -4 18 2 7 -5 12 -20 12 -13 0 -22 -4 -19 -8 8 -14 -7
-58 -18 -51 -6 3 -8 13 -5 21 3 8 -1 21 -10 30 -14 14 -16 14 -29 -3 -8 -11
-15 -24 -15 -31 0 -6 -16 -43 -35 -81 -20 -38 -35 -82 -35 -98 1 -32 -17 -128
-19 -105 0 8 -4 11 -7 8 -4 -4 -1 -13 6 -22 7 -8 10 -25 6 -39 -6 -25 17 -93
38 -111 7 -5 20 -36 29 -67 14 -45 24 -59 47 -69 17 -8 37 -30 50 -56 12 -23
27 -46 34 -50 7 -5 20 -19 29 -33 20 -29 22 -15 5 40 -8 24 -18 38 -25 36 -7
-3 -10 1 -6 10 4 11 12 8 39 -13 18 -16 36 -38 40 -51 4 -14 12 -21 20 -18 34
13 129 -93 105 -117 -16 -16 -29 2 -33 43 -2 23 -8 35 -18 35 -26 0 -22 -29
10 -72 29 -40 32 -41 49 -25 10 9 16 20 14 24 -2 4 1 9 7 13 11 7 13 -5 4 -29
-3 -9 -10 -13 -15 -10 -5 3 -9 3 -9 -1 0 -10 65 -64 78 -65 21 0 13 19 -18 42
-28 20 -44 48 -18 32 8 -5 9 -2 5 10 -6 14 -3 15 14 5 11 -6 29 -19 40 -30 10
-10 26 -19 34 -19 8 0 15 -5 15 -11 0 -6 10 -10 23 -9 37 3 42 1 90 -35 54
-41 70 -45 37 -10 -27 28 -20 34 9 7 60 -57 85 -72 117 -72 24 0 34 5 34 15 0
17 16 20 25 5 3 -5 17 -10 31 -10 18 0 23 4 18 13 -6 9 -4 9 8 -1 10 -8 19 -9
22 -4 8 13 -17 22 -57 22 -46 0 -77 10 -77 25 0 14 47 9 68 -8 8 -6 12 -6 12
2 0 7 8 8 24 1 25 -9 127 -5 181 7 17 4 33 6 38 5 4 -1 7 2 7 6 0 9 19 13 65
13 23 0 26 2 15 9 -13 8 -12 10 3 10 24 0 114 48 146 77 23 22 26 23 37 8 9
-12 13 -13 17 -3 5 11 7 11 15 0 7 -10 13 -4 26 23 10 20 20 34 23 31 12 -12
32 23 26 45 -5 20 -4 22 8 14 8 -5 7 -2 -3 7 -11 10 -14 19 -8 23 5 3 10 3 10
-2 0 -4 5 -1 10 7 6 10 10 11 10 3 0 -8 8 -5 20 7 11 11 20 26 20 34 0 8 9 21
21 29 11 8 19 23 17 33 -2 12 2 18 10 16 17 -3 51 76 57 130 2 24 7 61 10 83
6 37 5 39 -10 21 -8 -11 -15 -27 -15 -37 0 -9 -9 -27 -20 -40 l-20 -24 7 35
c3 19 12 54 19 78 7 24 8 44 3 48 -5 3 -9 15 -9 27 0 38 -17 1 -55 -120 -26
-81 -49 -133 -86 -188 -179 -267 -534 -343 -815 -174 -73 44 -170 148 -212
226 -183 345 6 770 384 867 268 69 564 -68 682 -315 39 -81 62 -162 62 -216 0
-14 8 -31 17 -38 14 -10 21 -8 40 11 24 24 31 54 12 54 -7 0 -4 11 6 26 9 15
13 24 8 21 -4 -3 -13 5 -19 18 -9 18 -9 25 1 29 8 3 18 -8 25 -25 13 -30 35
-53 24 -25 -4 11 0 16 12 16 17 1 17 2 4 13 -9 7 -14 20 -12 30 2 10 -3 17
-12 17 -10 0 -15 9 -15 28 0 47 -5 71 -23 92 -20 22 -23 35 -8 25 6 -3 13 1
16 10 4 10 13 13 26 10 15 -5 18 -2 14 17 -6 33 -28 78 -38 78 -12 0 -10 -10
7 -26 18 -19 20 -54 3 -54 -22 0 -35 14 -32 33 2 13 -2 17 -12 13 -24 -9 -54
15 -43 35 7 14 5 16 -10 12 -10 -3 -22 0 -25 6 -4 5 -13 8 -21 5 -11 -5 -13 2
-10 31 5 33 3 36 -10 25 -12 -10 -15 -10 -15 3 0 8 10 17 21 20 17 5 20 11 17
32 -5 25 -5 25 13 9 23 -21 32 -16 15 8 -22 29 -41 26 -41 -7 0 -23 -5 -31
-22 -33 -20 -3 -22 0 -17 25 4 21 0 33 -15 47 -12 11 -24 16 -28 13 -3 -4 -12
-2 -19 4 -8 7 -14 7 -19 -1 -7 -12 3 -32 14 -26 4 3 8 -1 8 -9 0 -19 -4 -19
-28 4 -12 11 -18 24 -15 29 3 6 -1 13 -10 16 -21 8 -24 8 -24 -5 0 -5 5 -7 12
-3 7 4 8 3 4 -4 -5 -8 -13 -8 -31 0 -34 15 -31 27 4 26 16 -1 37 6 45 15 15
15 19 14 51 -4 46 -27 45 -17 0 11 -33 20 -37 21 -53 6 -18 -15 -67 -12 -57 4
6 10 -24 22 -37 14 -5 -3 -8 -15 -5 -25 4 -15 2 -17 -13 -9 -27 15 -36 32 -14
28 11 -2 19 3 19 12 1 8 7 14 15 12 10 -2 12 0 5 7 -14 14 -57 2 -48 -13 4 -7
1 -6 -9 2 -9 7 -13 22 -11 36 4 21 0 24 -54 35 -75 16 -268 27 -260 15 3 -5
-23 -8 -59 -7 -35 1 -64 -2 -64 -7 0 -14 27 -19 39 -7 8 8 11 8 11 -2 0 -10
10 -12 43 -7 53 9 54 9 100 0 31 -5 37 -4 37 10 0 14 3 15 22 5 14 -8 18 -14
10 -17 -21 -7 -13 -22 12 -22 14 0 27 -4 30 -9 3 -4 -47 -7 -112 -5 -91 3
-135 0 -197 -15 -44 -11 -81 -18 -83 -16 -11 11 14 45 43 60 19 9 35 18 35 20
0 6 -88 -2 -99 -10 -6 -3 -11 2 -12 12 0 14 -2 13 -10 -5 -7 -18 -14 -22 -31
-16 -13 3 -25 8 -28 11 -7 7 43 43 60 43 20 0 40 19 40 37 0 10 -6 8 -21 -6
-11 -10 -36 -22 -55 -26 -32 -6 -39 -13 -35 -42 1 -7 -3 -13 -9 -13 -6 0 -9
-4 -6 -9 3 -4 -1 -17 -9 -27 -14 -19 -14 -18 -15 2 0 11 5 25 12 32 6 6 12 21
13 32 1 15 -4 20 -23 20 -17 0 -23 4 -18 15 6 17 -9 21 -19 5 -5 -8 -12 -7
-23 2 -12 10 -14 10 -8 0 4 -7 1 -15 -9 -19 -22 -8 -38 17 -23 35 7 8 8 16 2
22 -5 5 -14 -2 -22 -18z m578 -72 c0 -5 -6 -10 -14 -10 -8 0 -18 5 -21 10 -3
6 3 10 14 10 12 0 21 -4 21 -10z m-133 -6 c-3 -3 -12 -4 -19 -1 -8 3 -5 6 6 6
11 1 17 -2 13 -5z m217 -10 c3 -8 2 -12 -4 -9 -6 3 -10 10 -10 16 0 14 7 11
14 -7z m41 -12 c-3 -3 -11 0 -18 7 -9 10 -8 11 6 5 10 -3 15 -9 12 -12z m75
-2 c13 -8 13 -11 1 -22 -11 -11 -13 -11 -6 1 6 11 4 13 -8 8 -17 -6 -31 5 -20
17 8 8 15 7 33 -4z m256 -180 c1 -20 -3 -27 -13 -23 -8 3 -12 12 -9 20 3 8 6
22 6 30 0 28 15 3 16 -27z m-1186 -40 c0 -5 -5 -10 -11 -10 -5 0 -7 5 -4 10 3
6 8 10 11 10 2 0 4 -4 4 -10z m1348 -185 c-3 -3 -9 2 -12 12 -6 14 -5 15 5 6
7 -7 10 -15 7 -18z m42 -181 c0 -2 -7 -4 -15 -4 -8 0 -15 4 -15 10 0 5 7 7 15
4 8 -4 15 -8 15 -10z m-1630 -215 c-6 -10 -10 -29 -10 -43 0 -14 -4 -26 -10
-26 -5 0 -10 -5 -10 -11 0 -5 5 -7 11 -3 7 4 9 -2 7 -17 -1 -12 -8 -24 -14
-26 -19 -6 -24 117 -6 151 14 28 15 29 28 12 9 -13 10 -24 4 -37z m120 -160
c0 -28 -15 -23 -16 6 -1 14 2 22 7 19 5 -3 9 -14 9 -25z m1460 -159 c0 -5 -2
-10 -4 -10 -3 0 -8 5 -11 10 -3 6 -1 10 4 10 6 0 11 -4 11 -10z m-1494 -60 c5
0 10 -9 12 -20 3 -19 1 -20 -17 -10 -12 6 -21 21 -21 33 0 16 3 18 9 9 4 -8
12 -13 17 -12z m1340 -148 c-22 -23 -29 -10 -9 18 11 16 18 19 21 11 2 -7 -3
-20 -12 -29z m-36 -42 c-6 -11 -18 -20 -27 -20 -14 0 -14 2 2 20 10 11 22 20
27 20 5 0 4 -9 -2 -20z m-787 -100 c26 -13 37 -30 18 -30 -11 0 -101 38 -101
42 0 8 58 -1 83 -12z"/>
<path d="M1043 1953 c4 -3 -1 -12 -11 -19 -21 -15 -7 -32 15 -18 22 14 25 44
5 44 -8 0 -12 -3 -9 -7z"/>
<path d="M898 1913 c7 -3 16 -2 19 1 4 3 -2 6 -13 5 -11 0 -14 -3 -6 -6z"/>
<path d="M610 1866 c0 -2 8 -10 18 -17 15 -13 16 -12 3 4 -13 16 -21 21 -21
13z"/>
<path d="M392 1818 c-15 -42 -8 -48 12 -9 18 34 19 41 8 41 -4 0 -13 -14 -20
-32z"/>
<path d="M1594 1785 c11 -8 27 -15 35 -15 10 1 7 6 -9 15 -33 19 -50 18 -26 0z"/>
<path d="M394 1718 c-10 -12 -13 -18 -6 -14 8 5 22 0 37 -14 13 -12 26 -17 29
-12 3 5 -6 17 -19 26 -14 9 -23 21 -20 26 11 18 -1 11 -21 -12z"/>
<path d="M1742 1698 c3 -7 13 -15 24 -17 16 -3 17 -1 5 13 -16 19 -34 21 -29
4z"/>
<path d="M291 1622 c-14 -26 -14 -42 -1 -42 11 0 25 48 17 56 -3 3 -10 -3 -16
-14z"/>
<path d="M1833 1585 c0 -8 4 -12 9 -9 5 3 6 10 3 15 -9 13 -12 11 -12 -6z"/>
<path d="M1883 1557 c1 -14 5 -23 9 -21 3 2 8 -2 11 -8 2 -7 7 -11 9 -8 3 3
-3 18 -12 34 l-18 28 1 -25z"/>
<path d="M1865 1500 c-3 -6 1 -7 9 -4 18 7 21 14 7 14 -6 0 -13 -4 -16 -10z"/>
<path d="M307 1477 c-11 -29 -9 -43 4 -30 6 6 9 19 7 29 -3 18 -4 18 -11 1z"/>
<path d="M1920 1451 c0 -6 4 -13 10 -16 6 -3 7 1 4 9 -7 18 -14 21 -14 7z"/>
<path d="M447 1433 c-4 -3 -7 -18 -7 -31 0 -24 1 -24 18 -9 10 10 22 15 25 12
4 -3 5 -2 2 2 -3 3 3 12 13 19 16 12 16 13 0 14 -9 0 -20 -5 -24 -11 -5 -8 -8
-8 -13 0 -4 6 -10 8 -14 4z"/>
<path d="M230 1414 c0 -8 5 -12 10 -9 6 4 8 11 5 16 -9 14 -15 11 -15 -7z"/>
<path d="M1968 1363 c7 -3 16 -2 19 1 4 3 -2 6 -13 5 -11 0 -14 -3 -6 -6z"/>
<path d="M1991 1334 c0 -11 3 -14 6 -6 3 7 2 16 -1 19 -3 4 -6 -2 -5 -13z"/>
<path d="M196 1325 c-3 -9 -6 -29 -5 -43 1 -26 1 -26 15 7 9 21 12 37 6 43 -6
6 -12 3 -16 -7z"/>
<path d="M2011 1218 c0 -7 4 -22 9 -33 8 -18 9 -17 9 7 1 15 -3 30 -9 33 -5 3
-10 0 -9 -7z"/>
<path d="M181 1176 c-9 -10 -8 -16 3 -25 12 -10 17 -8 25 7 16 30 -6 44 -28
18z"/>
<path d="M2130 1148 c0 -23 3 -29 9 -19 8 12 4 51 -5 51 -2 0 -4 -15 -4 -32z"/>
<path d="M2031 1099 c-19 -42 -8 -46 12 -4 9 19 13 35 9 35 -4 0 -13 -14 -21
-31z"/>
<path d="M832 1027 c-25 -26 -30 -84 -11 -120 7 -12 32 -43 56 -70 51 -54 56
-92 13 -92 -20 0 -26 6 -28 28 -3 21 -9 27 -28 27 -21 0 -24 -5 -24 -34 0 -51
29 -81 78 -81 77 0 110 62 72 139 -11 25 -32 52 -46 61 -14 9 -32 32 -41 51
-16 32 -16 36 -1 51 20 20 48 10 48 -17 0 -16 7 -20 30 -20 17 0 30 4 30 9 0
23 -24 73 -40 81 -34 18 -85 12 -108 -13z"/>
<path d="M1010 871 l0 -181 25 0 c24 0 25 2 25 64 l0 63 38 7 c59 9 77 36 77
112 0 85 -20 106 -105 112 l-60 4 0 -181z m105 64 c0 -47 -2 -50 -27 -53 -28
-3 -28 -3 -28 53 0 56 0 56 28 53 25 -3 27 -6 27 -53z"/>
<path d="M1200 870 l0 -180 30 0 30 0 0 180 0 180 -30 0 -30 0 0 -180z"/>
<path d="M1300 870 l0 -180 30 0 30 0 0 70 c0 67 1 70 24 70 29 0 36 -16 36
-86 0 -54 0 -54 31 -54 l31 0 -4 69 c-2 48 -9 76 -21 89 -15 16 -15 21 -3 31
20 17 29 77 16 116 -13 39 -48 55 -121 55 l-49 0 0 -180z m118 91 c7 -43 -6
-71 -33 -71 -23 0 -25 3 -25 51 0 49 1 50 28 47 20 -2 28 -9 30 -27z"/>
<path d="M1510 870 l0 -180 75 0 c73 0 75 1 75 25 0 23 -4 25 -45 25 l-45 0 0
50 0 50 35 0 c32 0 35 2 35 30 0 28 -3 30 -35 30 -35 0 -35 0 -35 45 l0 45 45
0 c43 0 45 1 45 30 l0 30 -75 0 -75 0 0 -180z"/>
<path d="M1950 854 c-11 -36 -20 -72 -20 -79 0 -6 -6 -25 -14 -41 -29 -57 -57
-140 -40 -117 9 12 27 34 40 50 13 15 24 36 24 46 0 11 8 17 24 17 28 0 33 15
41 121 5 68 4 72 -8 45 -14 -29 -32 -22 -21 8 3 9 4 16 0 16 -3 0 -14 -30 -26
-66z m27 -16 c-3 -8 -6 -5 -6 6 -1 11 2 17 5 13 3 -3 4 -12 1 -19z m-12 -47
c-3 -12 -10 -21 -15 -21 -5 0 -4 11 2 25 13 29 23 26 13 -4z m12 -33 c-3 -8
-6 -5 -6 6 -1 11 2 17 5 13 3 -3 4 -12 1 -19z"/>
<path d="M2032 845 c0 -16 2 -22 5 -12 2 9 2 23 0 30 -3 6 -5 -1 -5 -18z"/>
<path d="M480 503 c0 -5 7 -18 15 -29 12 -16 14 -16 15 -3 0 9 -7 22 -15 29
-8 7 -15 8 -15 3z"/>
<path d="M460 476 c0 -2 8 -10 18 -17 15 -13 16 -12 3 4 -13 16 -21 21 -21 13z"/>
<path d="M1800 445 c-7 -9 -8 -15 -2 -15 5 0 12 7 16 15 3 8 4 15 2 15 -2 0
-9 -7 -16 -15z"/>
<path d="M410 430 c0 -5 5 -10 11 -10 5 0 7 5 4 10 -3 6 -8 10 -11 10 -2 0 -4
-4 -4 -10z"/>
<path d="M1604 386 c-10 -8 -17 -16 -14 -19 3 -2 14 4 24 14 23 22 18 25 -10
5z"/>
<path d="M586 335 c7 -18 44 -40 44 -27 0 10 -33 42 -43 42 -3 0 -4 -7 -1 -15z"/>
<path d="M1528 333 c7 -3 16 -2 19 1 4 3 -2 6 -13 5 -11 0 -14 -3 -6 -6z"/>
<path d="M1485 320 c-3 -5 -24 -14 -46 -20 -22 -6 -37 -15 -34 -20 3 -5 -7
-11 -22 -13 l-28 -4 28 -2 c16 0 41 8 57 19 15 11 30 17 34 13 3 -3 6 -1 6 5
0 6 7 9 15 6 11 -5 13 -2 9 10 -7 19 -11 20 -19 6z"/>
<path d="M776 307 c6 -17 44 -40 52 -32 4 3 -4 15 -18 25 -29 23 -41 25 -34 7z"/>
<path d="M1218 263 c-33 -8 -18 -18 27 -18 29 0 45 4 45 13 0 12 -36 15 -72 5z"/>
<path d="M861 234 c19 -20 20 -24 5 -18 -14 5 -17 3 -14 -7 3 -8 19 -14 37
-15 18 -1 37 -6 44 -12 6 -7 15 -12 20 -12 5 0 -16 20 -46 45 -61 50 -84 59
-46 19z"/>
<path d="M515 240 c3 -5 8 -10 11 -10 2 0 4 5 4 10 0 6 -5 10 -11 10 -5 0 -7
-4 -4 -10z"/>
<path d="M551 190 c-17 -10 1 -39 43 -68 23 -16 47 -22 82 -22 l49 1 -33 29
c-18 17 -40 30 -50 30 -9 0 -31 9 -48 19 -17 11 -37 16 -43 11z"/>
<path d="M971 196 c4 -4 16 -9 28 -11 11 -3 29 -7 39 -9 9 -3 33 -7 52 -10
l35 -6 -30 14 c-32 15 -134 33 -124 22z"/>
</g>
</svg>
